DataRate=2000.000000
DataType=double
version=3
OpenSimVersion=4.3-2021-08-27-4bc7ad9
endheader
time	f1_1	f1_2	f1_3	p1_1	p1_2	p1_3	m1_1	m1_2	m1_3	f2_1	f2_2	f2_3	p2_1	p2_2	p2_3	m2_1	m2_2	m2_3	f3_1	f3_2	f3_3	p3_1	p3_2	p3_3	m3_1	m3_2	m3_3	f4_1	f4_2	f4_3	p4_1	p4_2	p4_3	m4_1	m4_2	m4_3
2.0275	-0	0	0	-300	2252	0	0	0	0	-1.998024940490723	-56.39968872070312	392.5230407714844	-300	1351	0	-94071.5625	43264.76953125	2029.32568359375	5.888542040795284	57.6207621287343	415.2135314941406	-300	450.0000000000007	0	84392.34146862711	52191.73025140643	-6557.06787109375	-0	0	0	305	450.0000000000007	0	0	0	0
2.028	-0	0	0	-300	2252	0	0	0	0	-1.945684432983398	-56.70536041259766	392.736083984375	-300	1351	0	-94129.0703125	43250.34765625	2059.297607421875	6.069081181873868	57.39395549600091	415.0689392089844	-300	450.0000000000007	0	84235.17740305638	52261.98024453656	-6575.1552734375	-0	0	0	305	450.0000000000007	0	0	0	0
2.0285	-0	0	0	-300	2252	0	0	0	0	-1.784210205078125	-56.52711868286133	392.5960388183594	-300	1351	0	-94106.953125	43123.28515625	2017.654174804688	5.960388548368025	57.10751368827129	414.9368896484375	-300	450.0000000000007	0	84138.35708664967	52351.35524030442	-6586.9072265625	-0	0	0	305	450.0000000000007	0	0	0	0
2.029	-0	0	0	-300	2252	0	0	0	0	-1.784210205078125	-56.63157653808594	392.1028747558594	-300	1351	0	-94096.640625	43052.640625	2018.589477539062	6.015586257864833	57.25078227588914	414.647216796875	-300	450.0000000000007	0	84317.93521691195	52230.96852940402	-6604.81787109375	-0	0	0	305	450.0000000000007	0	0	0	0
2.0295	-0	0	0	-300	2252	0	0	0	0	-1.819571852684021	-56.91899871826172	392.0965576171875	-300	1351	0	-94344.890625	43124.71875	1924.049560546875	5.819765452586507	57.17912317919478	414.6604919433594	-300	450.0000000000007	0	84289.09146188156	52346.05055939322	-6616.44775390625	-0	0	0	305	450.0000000000007	0	0	0	0
2.03	-0	0	0	-300	2252	0	0	0	0	-1.944128036499023	-56.51197814941406	392.3161926269531	-300	1351	0	-94266.4375	43121.7890625	1965.17626953125	5.836470003465174	57.37237955809878	414.5018310546875	-300	450.0000000000007	0	84192.50551779974	52496.62477392132	-6599.07568359375	-0	0	0	305	450.0000000000007	0	0	0	0
2.0305	-0	0	0	-300	2252	0	0	0	0	-2.157878637313843	-56.11514663696289	391.8164978027344	-300	1351	0	-94283.7734375	43236.8984375	2012.336669921875	5.908492433716961	57.5507662494794	415.6356811523438	-300	450.0000000000007	0	84152.19301793566	52493.5153971592	-6580.57666015625	-0	0	0	305	450.0000000000007	0	0	0	0
2.031	-0	0	0	-300	2252	0	0	0	0	-2.107447624206543	-56.47163772583008	392.4494323730469	-300	1351	0	-94251.3984375	43543.36328125	2018.132446289062	5.854909289378741	57.53238703571143	414.7921142578125	-300	450.0000000000007	0	84212.57583993794	52276.12868104862	-6634.2958984375	-0	0	0	305	450.0000000000007	0	0	0	0
2.0315	-0	0	0	-300	2252	0	0	0	0	-1.925528645515442	-56.65163803100586	392.9494018554688	-300	1351	0	-94207.3125	43307.93359375	2000.373779296875	5.925133095335209	57.58573939473804	415.0685119628906	-300	450.0000000000007	0	84510.00553025903	52211.58963154969	-6610.85009765625	-0	0	0	305	450.0000000000007	0	0	0	0
2.032	-0	0	0	-300	2252	0	0	0	0	-1.964444398880005	-56.38607025146484	392.3165893554688	-300	1351	0	-94285.7265625	43262.9296875	1977.424438476562	6.137642739667432	57.30614116794315	415.4904174804688	-300	450.0000000000007	0	84309.16958962052	52283.39040402087	-6598.70361328125	-0	0	0	305	450.0000000000007	0	0	0	0
2.0325	-0	0	0	-300	2252	0	0	0	0	-1.730313301086426	-56.27471923828125	391.6765747070312	-300	1351	0	-94280.4375	43261.9921875	1907.521362304688	6.122983342884906	57.12376049103283	415.7666931152344	-300	450.0000000000007	0	84207.16178021651	52212.56227456196	-6646.32666015625	-0	0	0	305	450.0000000000007	0	0	0	0
2.033	-0	0	0	-300	2252	0	0	0	0	-1.678293585777283	-56.38616561889648	391.8163452148438	-300	1351	0	-94351.59375	43083.49609375	1900.734497070312	5.889997353193508	57.49742152210845	416.3268432617188	-300	450.0000000000007	0	84148.41177706093	52284.75367824392	-6617.06103515625	-0	0	0	305	450.0000000000007	0	0	0	0
2.0335	-0	0	0	-300	2252	0	0	0	0	-1.799114108085632	-56.13359832763672	392.0297241210938	-300	1351	0	-94381.8203125	43040.1015625	2006.314331054688	5.908520575551131	57.35763957101383	415.84716796875	-300	450.0000000000007	0	84114.22427715587	52282.58180174954	-6592.333984375	-0	0	0	305	450.0000000000007	0	0	0	0
2.034	-0	0	0	-300	2252	0	0	0	0	-2.15958571434021	-56.3119010925293	392.1696472167969	-300	1351	0	-94132.5078125	43333.34765625	2035.90673828125	5.749546884922334	57.28400064804925	415.2068176269531	-300	450.0000000000007	0	84095.94302215433	52397.00367595044	-6616.97216796875	-0	0	0	305	450.0000000000007	0	0	0	0
2.0345	-0	0	0	-300	2252	0	0	0	0	-2.051841735839844	-56.41954803466797	392.2430419921875	-300	1351	0	-94408.5390625	43245.9609375	2035.272338867188	5.764341223735764	57.53237940235804	415.839599609375	-300	450.0000000000007	0	84202.27115122307	52303.92164934819	-6592.205078125	-0	0	0	305	450.0000000000007	0	0	0	0
2.035	-0	0	0	-300	2252	0	0	0	0	-2.01651930809021	-56.45483779907227	392.4492492675781	-300	1351	0	-94466.75	43112.5703125	2065.0791015625	6.032330861454026	57.48088863038083	415.4250793457031	-300	450.0000000000007	0	84331.15397151804	52125.59352998184	-6652.3603515625	-0	0	0	305	450.0000000000007	0	0	0	0
2.0355	-0	0	0	-300	2252	0	0	0	0	-1.962631225585938	-56.54396057128906	392.3902282714844	-300	1351	0	-94122.1796875	43110.6796875	2041.26904296875	5.891943334884853	57.28583552365836	414.9302673339844	-300	450.0000000000007	0	84295.32584469138	52167.38259091574	-6610.91259765625	-0	0	0	305	450.0000000000007	0	0	0	0
2.036	-0	0	0	-300	2252	0	0	0	0	-1.89201831817627	-56.52725982666016	392.0222473144531	-300	1351	0	-93942.671875	43116.6328125	2012.67529296875	5.747665760005286	57.33725763649241	415.1412963867188	-300	450.0000000000007	0	84190.93521473458	52280.78102385268	-6551.474609375	-0	0	0	305	450.0000000000007	0	0	0	0
2.0365	-0	0	0	-300	2252	0	0	0	0	-1.890105485916138	-56.49008178710938	392.809814453125	-300	1351	0	-94183.734375	43153.98046875	1976.74169921875	5.784747477556019	57.35771204485159	415.4174499511719	-300	450.0000000000007	0	84245.96646281656	52324.65993250817	-6562.556640625	-0	0	0	305	450.0000000000007	0	0	0	0
